<svg width="32" height="32" viewBox="0 0 32 32" fill="none" xmlns="http://www.w3.org/2000/svg">
  <defs>
    <linearGradient id="grad" x1="0%" y1="0%" x2="100%" y2="100%">
      <stop offset="0%" style="stop-color:#667eea;stop-opacity:1" />
      <stop offset="100%" style="stop-color:#764ba2;stop-opacity:1" />
    </linearGradient>
  </defs>

  <!-- Rounded square background -->
  <rect width="32" height="32" rx="6" fill="url(#grad)"/>

  <!-- Camera icon -->
  <g transform="translate(6, 8)">
    <!-- Camera body -->
    <rect x="1" y="4" width="18" height="12" rx="2" fill="white" opacity="0.95"/>
    <!-- Lens -->
    <circle cx="10" cy="10" r="3.5" fill="url(#grad)" opacity="0.8"/>
    <circle cx="10" cy="10" r="2" fill="white" opacity="0.4"/>
    <!-- Flash -->
    <rect x="15" y="5" width="2" height="2" rx="0.5" fill="url(#grad)"/>
  </g>

  <!-- Chart lines -->
  <g transform="translate(9, 10)" stroke="white" stroke-width="1.2" opacity="0.6">
    <line x1="2" y1="8" x2="2" y2="12"/>
    <rect x="1.2" y="9" width="1.6" height="2" fill="#10b981"/>

    <line x1="5" y1="7" x2="5" y2="10"/>
    <rect x="4.2" y="7.5" width="1.6" height="1.5" fill="#10b981"/>

    <line x1="8" y1="5" x2="8" y2="10"/>
    <rect x="7.2" y="6" width="1.6" height="3" fill="#10b981"/>

    <line x1="11" y1="4" x2="11" y2="8"/>
    <rect x="10.2" y="4.5" width="1.6" height="2.5" fill="#10b981"/>
  </g>
</svg>
