
<svg width="1200" height="600" xmlns="http://www.w3.org/2000/svg">
  <defs>
    <style>
      .chart-bg { fill: #ffffff; }
      .grid { stroke: #e5e7eb; stroke-width: 1; }
      .candle-green { fill: #10b981; stroke: #10b981; }
      .candle-red { fill: #ef4444; stroke: #ef4444; }
      .line-purple { stroke: #8b5cf6; stroke-width: 3; fill: none; }
      .text-title { font: bold 24px Arial; fill: #111827; }
      .text-label { font: bold 14px Arial; fill: #8b5cf6; }
      .volume { opacity: 0.5; }
    </style>
  </defs>

  <rect class="chart-bg" width="1200" height="600"/>

  <!-- Grid -->
  <line class="grid" x1="0" y1="0" x2="0" y2="600"/><line class="grid" x1="60" y1="0" x2="60" y2="600"/><line class="grid" x1="120" y1="0" x2="120" y2="600"/><line class="grid" x1="180" y1="0" x2="180" y2="600"/><line class="grid" x1="240" y1="0" x2="240" y2="600"/><line class="grid" x1="300" y1="0" x2="300" y2="600"/><line class="grid" x1="360" y1="0" x2="360" y2="600"/><line class="grid" x1="420" y1="0" x2="420" y2="600"/><line class="grid" x1="480" y1="0" x2="480" y2="600"/><line class="grid" x1="540" y1="0" x2="540" y2="600"/><line class="grid" x1="600" y1="0" x2="600" y2="600"/><line class="grid" x1="660" y1="0" x2="660" y2="600"/><line class="grid" x1="720" y1="0" x2="720" y2="600"/><line class="grid" x1="780" y1="0" x2="780" y2="600"/><line class="grid" x1="840" y1="0" x2="840" y2="600"/><line class="grid" x1="900" y1="0" x2="900" y2="600"/><line class="grid" x1="960" y1="0" x2="960" y2="600"/><line class="grid" x1="1020" y1="0" x2="1020" y2="600"/><line class="grid" x1="1080" y1="0" x2="1080" y2="600"/><line class="grid" x1="1140" y1="0" x2="1140" y2="600"/>
  <line class="grid" x1="0" y1="0" x2="1200" y2="0"/><line class="grid" x1="0" y1="60" x2="1200" y2="60"/><line class="grid" x1="0" y1="120" x2="1200" y2="120"/><line class="grid" x1="0" y1="180" x2="1200" y2="180"/><line class="grid" x1="0" y1="240" x2="1200" y2="240"/><line class="grid" x1="0" y1="300" x2="1200" y2="300"/><line class="grid" x1="0" y1="360" x2="1200" y2="360"/><line class="grid" x1="0" y1="420" x2="1200" y2="420"/><line class="grid" x1="0" y1="480" x2="1200" y2="480"/><line class="grid" x1="0" y1="540" x2="1200" y2="540"/>

  <text class="text-title" x="50" y="40">Strong Momentum Example - Higher Highs &amp; Higher Lows</text>

  <!-- Candlesticks showing uptrend -->
  <rect class="candle-green" x="90" y="350" width="30" height="40"/>
  <line class="candle-green" x1="105" y1="340" x2="105" y2="395" stroke-width="2"/>

  <rect class="candle-green" x="160" y="335" width="30" height="45"/>
  <line class="candle-green" x1="175" y1="325" x2="175" y2="385" stroke-width="2"/>

  <rect class="candle-green" x="230" y="310" width="30" height="50"/>
  <line class="candle-green" x1="245" y1="295" x2="245" y2="370" stroke-width="2"/>

  <rect class="candle-green" x="300" y="280" width="30" height="55"/>
  <line class="candle-green" x1="315" y1="265" x2="315" y2="345" stroke-width="2"/>

  <rect class="candle-green" x="370" y="270" width="30" height="45"/>
  <line class="candle-green" x1="385" y1="260" x2="385" y2="325" stroke-width="2"/>

  <rect class="candle-green" x="440" y="250" width="30" height="50"/>
  <line class="candle-green" x1="455" y1="235" x2="455" y2="310" stroke-width="2"/>

  <rect class="candle-green" x="510" y="225" width="30" height="55"/>
  <line class="candle-green" x1="525" y1="210" x2="525" y2="290" stroke-width="2"/>

  <rect class="candle-green" x="580" y="200" width="30" height="60"/>
  <line class="candle-green" x1="595" y1="185" x2="595" y2="270" stroke-width="2"/>

  <rect class="candle-green" x="650" y="190" width="30" height="50"/>
  <line class="candle-green" x1="665" y1="175" x2="665" y2="250" stroke-width="2"/>

  <rect class="candle-green" x="720" y="165" width="30" height="55"/>
  <line class="candle-green" x1="735" y1="150" x2="735" y2="230" stroke-width="2"/>

  <rect class="candle-green" x="790" y="140" width="30" height="60"/>
  <line class="candle-green" x1="805" y1="125" x2="805" y2="210" stroke-width="2"/>

  <rect class="candle-green" x="860" y="125" width="30" height="55"/>
  <line class="candle-green" x1="875" y1="110" x2="875" y2="190" stroke-width="2"/>

  <!-- Trendline -->
  <line class="line-purple" x1="105" y1="390" x2="875" y2="140"/>

  <!-- Volume bars -->
  <rect class="candle-green volume" x="97" y="520" width="16" height="40"/>
  <rect class="candle-green volume" x="167" y="510" width="16" height="50"/>
  <rect class="candle-green volume" x="237" y="490" width="16" height="70"/>
  <rect class="candle-green volume" x="307" y="480" width="16" height="80"/>
  <rect class="candle-green volume" x="377" y="500" width="16" height="60"/>
  <rect class="candle-green volume" x="447" y="490" width="16" height="70"/>
  <rect class="candle-green volume" x="517" y="470" width="16" height="90"/>
  <rect class="candle-green volume" x="587" y="460" width="16" height="100"/>
  <rect class="candle-green volume" x="657" y="485" width="16" height="75"/>
  <rect class="candle-green volume" x="727" y="475" width="16" height="85"/>
  <rect class="candle-green volume" x="797" y="450" width="16" height="110"/>
  <rect class="candle-green volume" x="867" y="470" width="16" height="90"/>

  <!-- Labels -->
  <text class="text-label" x="150" y="450">Higher Lows</text>
  <text class="text-label" x="800" y="200">Higher Highs</text>
  <text class="text-label" x="450" y="440" fill="#10b981">Increasing Volume</text>
  <text style="font: 12px Arial; fill: #666;" x="20" y="540">Volume</text>
</svg>