
<svg width="1200" height="600" xmlns="http://www.w3.org/2000/svg">
  <defs>
    <style>
      .chart-bg { fill: #ffffff; }
      .grid { stroke: #e5e7eb; stroke-width: 1; }
      .candle-green { fill: #10b981; stroke: #10b981; }
      .candle-red { fill: #ef4444; stroke: #ef4444; }
      .support-line { stroke: #3b82f6; stroke-width: 2; fill: none; }
      .support-dashed { stroke: #3b82f6; stroke-width: 2; fill: none; stroke-dasharray: 5,5; }
      .text-title { font: bold 24px Arial; fill: #111827; }
      .text-label { font: bold 16px Arial; }
      .arrow { fill: #10b981; }
    </style>
  </defs>

  <rect class="chart-bg" width="1200" height="600"/>

  <!-- Grid -->
  <line class="grid" x1="0" y1="0" x2="0" y2="600"/><line class="grid" x1="60" y1="0" x2="60" y2="600"/><line class="grid" x1="120" y1="0" x2="120" y2="600"/><line class="grid" x1="180" y1="0" x2="180" y2="600"/><line class="grid" x1="240" y1="0" x2="240" y2="600"/><line class="grid" x1="300" y1="0" x2="300" y2="600"/><line class="grid" x1="360" y1="0" x2="360" y2="600"/><line class="grid" x1="420" y1="0" x2="420" y2="600"/><line class="grid" x1="480" y1="0" x2="480" y2="600"/><line class="grid" x1="540" y1="0" x2="540" y2="600"/><line class="grid" x1="600" y1="0" x2="600" y2="600"/><line class="grid" x1="660" y1="0" x2="660" y2="600"/><line class="grid" x1="720" y1="0" x2="720" y2="600"/><line class="grid" x1="780" y1="0" x2="780" y2="600"/><line class="grid" x1="840" y1="0" x2="840" y2="600"/><line class="grid" x1="900" y1="0" x2="900" y2="600"/><line class="grid" x1="960" y1="0" x2="960" y2="600"/><line class="grid" x1="1020" y1="0" x2="1020" y2="600"/><line class="grid" x1="1080" y1="0" x2="1080" y2="600"/><line class="grid" x1="1140" y1="0" x2="1140" y2="600"/>
  <line class="grid" x1="0" y1="0" x2="1200" y2="0"/><line class="grid" x1="0" y1="60" x2="1200" y2="60"/><line class="grid" x1="0" y1="120" x2="1200" y2="120"/><line class="grid" x1="0" y1="180" x2="1200" y2="180"/><line class="grid" x1="0" y1="240" x2="1200" y2="240"/><line class="grid" x1="0" y1="300" x2="1200" y2="300"/><line class="grid" x1="0" y1="360" x2="1200" y2="360"/><line class="grid" x1="0" y1="420" x2="1200" y2="420"/><line class="grid" x1="0" y1="480" x2="1200" y2="480"/><line class="grid" x1="0" y1="540" x2="1200" y2="540"/>

  <text class="text-title" x="50" y="40">First Pullback Entry Pattern</text>

  <!-- Phase 1: Initial Move -->
  <rect class="candle-green" x="100" y="350" width="40" height="50"/>
  <line class="candle-green" x1="120" y1="335" x2="120" y2="405" stroke-width="2"/>

  <rect class="candle-green" x="190" y="310" width="40" height="60"/>
  <line class="candle-green" x1="210" y1="295" x2="210" y2="380" stroke-width="2"/>

  <rect class="candle-green" x="280" y="265" width="40" height="70"/>
  <line class="candle-green" x1="300" y1="248" x2="300" y2="345" stroke-width="2"/>

  <rect class="candle-green" x="370" y="225" width="40" height="75"/>
  <line class="candle-green" x1="390" y1="208" x2="390" y2="310" stroke-width="2"/>

  <!-- Phase 2: Pullback/Consolidation -->
  <rect class="candle-red" x="460" y="255" width="40" height="50"/>
  <line class="candle-red" x1="480" y1="245" x2="480" y2="315" stroke-width="2"/>

  <rect class="candle-green" x="550" y="270" width="40" height="40"/>
  <line class="candle-green" x1="570" y1="260" x2="570" y2="320" stroke-width="2"/>

  <rect class="candle-green" x="640" y="275" width="40" height="35"/>
  <line class="candle-green" x1="660" y1="265" x2="660" y2="320" stroke-width="2"/>

  <!-- Phase 3: Second Leg -->
  <rect class="candle-green" x="730" y="245" width="40" height="60"/>
  <line class="candle-green" x1="750" y1="230" x2="750" y2="315" stroke-width="2"/>

  <rect class="candle-green" x="820" y="210" width="40" height="65"/>
  <line class="candle-green" x1="840" y1="195" x2="840" y2="285" stroke-width="2"/>

  <rect class="candle-green" x="910" y="175" width="40" height="70"/>
  <line class="candle-green" x1="930" y1="160" x2="930" y2="255" stroke-width="2"/>

  <rect class="candle-green" x="1000" y="150" width="40" height="65"/>
  <line class="candle-green" x1="1020" y1="135" x2="1020" y2="225" stroke-width="2"/>

  <!-- Support line -->
  <line class="support-line" x1="370" y1="305" x2="660" y2="305"/>
  <line class="support-dashed" x1="660" y1="305" x2="1020" y2="305"/>

  <text style="font: bold 14px Arial; fill: #3b82f6;" x="480" y="325">Support Level</text>

  <!-- Entry arrow -->
  <polygon class="arrow" points="750,280 730,230 770,230"/>
  <text class="text-label" fill="#10b981" x="720" y="220">Entry</text>

  <!-- Phase labels -->
  <text class="text-label" fill="#10b981" x="200" y="450">Initial Move</text>
  <text class="text-label" fill="#f59e0b" x="450" y="370">Consolidation</text>
  <text class="text-label" fill="#10b981" x="850" y="120">Second Leg Higher</text>
</svg>